{"title":"Wasteland.2013.BRRip.x264-MenaceIISociety","uid":12294432,"size":580211958,"categoryP":"video","categoryS":"movies","magnet":"?xt=urn:btih:7b80c69edc48b2b4c9de4a47bb2a342833a8264a&amp;dn=Wasteland.2013.BRRip.x264-MenaceIISociety&amp;tr=udp%3A%2F%2Ftracker.openbittorrent.com%3A80&amp;tr=udp%3A%2F%2Fopen.demonii.com%3A1337&amp;tr=udp%3A%2F%2Ftracker.coppersurfer.tk%3A6969&amp;tr=udp%3A%2F%2Fexodus.desync.com%3A6969","seeders":0,"leechers":0,"uploader":"TvTeam","files":4,"time":1440603418,"description":"------------------------------------------------------------------------\n\n &lt;a href=&quot; https://www.torrenting.com&quot; rel=&quot;nofollow&quot; target=&quot;_NEW&quot;&gt; https://www.torrenting.com&lt;/a&gt;\n\nSign up is OPEN - for time being. Come and have fun\n\n.......................................................................................................................[center][img]http://s29.postimg.org/nueca3hqf/317_CR5_0_214_317_AL.jpg[/img]\n\nWasteland.2013.BRRip.x264-MenaceIISociety &lt;a href=&quot;\nhttp://www.imdb.com/title/tt2352892/&quot; rel=&quot;nofollow&quot; target=&quot;_NEW&quot;&gt;\nhttp://www.imdb.com/title/tt2352892/&lt;/a&gt;\n\nSource: ENCOUNTERS [THANKS]\n\nGeneral\nComplete name                            : Wasteland.2013.BRRip.x264-MenaceIISociety.mp4\nFormat                                   : MPEG-4\nFormat profile                           : Base Media\nCodec ID                                 : isom\nFile size                                : 543 MiB\nDuration                                 : 1h 33mn\nOverall bit rate mode                    : Variable\nOverall bit rate                         : 815 Kbps\nEncoded date                             : UTC 2015-08-26 13:00:24\nTagged date                              : UTC 2015-08-26 13:00:24\n\nVideo\nID                                       : 1\nFormat                                   : AVC\nFormat/Info                              : Advanced Video Codec\nFormat profile                           : &lt;a class=&quot;__cf_email__&quot; href=&quot;/cdn-cgi/l/email-protection&quot; data-cfemail=&quot;eca4858b84aca0d8c2dd&quot;&gt;[email&amp;#160;protected]&lt;/a&gt;&lt;script data-cfhash='f9e31' type=&quot;text/javascript&quot;&gt;\n/* &lt;![CDATA[ */!function(){try{var t=&quot;currentScript&quot;in document?document.currentScript:function(){for(var t=document.getElementsByTagName(&quot;script&quot;),e=t.length;e--;)if(t[e].getAttribute(&quot;data-cfhash&quot;))return t[e]}();if(t&amp;&amp;t.previousSibling){var e,r,n,i,c=t.previousSibling,a=c.getAttribute(&quot;data-cfemail&quot;);if(a){for(e=&quot;&quot;,r=parseInt(a.substr(0,2),16),n=2;a.length-n;n+=2)i=parseInt(a.substr(n,2),16)^r,e+=String.fromCharCode(i);e=document.createTextNode(e),c.parentNode.replaceChild(e,c)}t.parentNode.removeChild(t);}}catch(u){}}()/* ]]&gt; */&lt;/script&gt;\nFormat settings, CABAC                   : Yes\nFormat settings, ReFrames                : 3 frames\nCodec ID                                 : avc1\nCodec ID/Info                            : Advanced Video Coding\nDuration                                 : 1h 33mn\nBit rate mode                            : Variable\nBit rate                                 : 683 Kbps\nMaximum bit rate                         : 40.0 Mbps\nWidth                                    : 720 pixels\nHeight                                   : 304 pixels\nDisplay aspect ratio                     : 2.35:1\nFrame rate mode                          : Constant\nFrame rate                               : 23.976 fps\nColor space                              : YUV\nChroma subsampling                       : 4:2:0\nBit depth                                : 8 bits\nScan type                                : Progressive\nBits/(Pixel*Frame)                       : 0.130\nStream size                              : 456 MiB (84%)\nWriting library                          : x264 core 148 r2579 73ae2d1\n\nAudio\nID                                       : 2\nFormat                                   : AAC\nFormat/Info                              : Advanced Audio Codec\nFormat profile                           : LC\nCodec ID                                 : 40\nDuration                                 : 1h 33mn\nBit rate mode                            : Variable\nBit rate                                 : 127 Kbps\nMaximum bit rate                         : 157 Kbps\nChannel(s)                               : 2 channels\nChannel positions                        : Front: L R\nSampling rate                            : 48.0 KHz\nCompression mode                         : Lossy\nStream size                              : 85.0 MiB (16%)\nLanguage                                 : English\nEncoded date                             : UTC 2015-08-26 11:57:23\nTagged date                              : UTC 2015-08-26 13:02:47 \n\n[img]http://s13.postimg.org/co5udzl5z/vlcsnap_2015_08_26_15h06m59s995.jpg[/img]\n[img]http://s13.postimg.org/yft7ifgfb/vlcsnap_2015_08_26_15h07m13s345.jpg[/img]\n[img]http://s13.postimg.org/a9dytk4x3/vlcsnap_2015_08_26_15h07m19s207.jpg[/img]\n[img]http://s13.postimg.org/fyysrm0h3/vlcsnap_2015_08_26_15h07m29s643.jpg[/img]\n[img]http://s13.postimg.org/83jnz21gn/vlcsnap_2015_08_26_15h07m37s301.jpg[/img]\n[img]http://s13.postimg.org/j0kznto87/vlcsnap_2015_08_26_15h11m31s839.jpg[/img] \n \n[img]http://s17.postimg.org/r1iiyw8yn/Untitled_1.png[/img][/center]","torrent":{"xt":"urn:btih:7b80c69edc48b2b4c9de4a47bb2a342833a8264a","amp;dn":"Wasteland.2013.BRRip.x264-MenaceIISociety","amp;tr":["udp%3A%2F%2Ftracker.openbittorrent.com%3A80","udp%3A%2F%2Fopen.demonii.com%3A1337","udp%3A%2F%2Ftracker.coppersurfer.tk%3A6969","udp%3A%2F%2Fexodus.desync.com%3A6969"],"infoHash":"7b80c69edc48b2b4c9de4a47bb2a342833a8264a","infoHashBuffer":{"type":"Buffer","data":[123,128,198,158,220,72,178,180,201,222,74,71,187,42,52,40,51,168,38,74]},"announce":[],"urlList":[]}}